{
  "accessors": [
    {
      "bufferView": 0,
      "componentType": 5125,
      "count": 158592,
      "type": "SCALAR"
    },
    {
      "bufferView": 1,
      "componentType": 5126,
      "count": 29078,
      "max": [
        10.9096260070801,
        46.827709197998,
        11.2183055877686
      ],
      "min": [
        -13.4035444259644,
        -0.838550567626953,
        -11.3517532348633
      ],
      "type": "VEC3"
    },
    {
      "bufferView": 2,
      "componentType": 5126,
      "count": 29078,
      "type": "VEC3"
    },
    {
      "bufferView": 3,
      "componentType": 5126,
      "count": 29078,
      "type": "VEC4"
    },
    {
      "bufferView": 4,
      "componentType": 5126,
      "count": 29078,
      "type": "VEC2"
    },
    {
      "bufferView": 5,
      "componentType": 5125,
      "count": 5760,
      "type": "SCALAR"
    },
    {
      "bufferView": 6,
      "componentType": 5126,
      "count": 1072,
      "max": [
        45.0850143432617,
        9.76823616027832,
        47.9391403198242
      ],
      "min": [
        -50.9207420349121,
        -2.25096130371094,
        -55.5090866088867
      ],
      "type": "VEC3"
    },
    {
      "bufferView": 7,
      "componentType": 5126,
      "count": 1072,
      "type": "VEC3"
    },
    {
      "bufferView": 8,
      "componentType": 5126,
      "count": 1072,
      "type": "VEC4"
    },
    {
      "bufferView": 9,
      "componentType": 5126,
      "count": 1072,
      "type": "VEC2"
    },
    {
      "bufferView": 10,
      "componentType": 5125,
      "count": 13656,
      "type": "SCALAR"
    },
    {
      "bufferView": 11,
      "componentType": 5126,
      "count": 2455,
      "max": [
        32.0483055114746,
        83.0988845825195,
        16.3930683135986
      ],
      "min": [
        -32.4101028442383,
        23.1793537139893,
        -16.8417587280273
      ],
      "type": "VEC3"
    },
    {
      "bufferView": 12,
      "componentType": 5126,
      "count": 2455,
      "type": "VEC3"
    },
    {
      "bufferView": 13,
      "componentType": 5126,
      "count": 2455,
      "type": "VEC4"
    },
    {
      "bufferView": 14,
      "componentType": 5126,
      "count": 2455,
      "type": "VEC2"
    },
    {
      "bufferView": 15,
      "componentType": 5125,
      "count": 133476,
      "type": "SCALAR"
    },
    {
      "bufferView": 16,
      "componentType": 5126,
      "count": 22770,
      "max": [
        4.7851710319519,
        18.9832229614258,
        2.44392585754395
      ],
      "min": [
        -4.71372985839844,
        6.44778823852539,
        -3.47333407402039
      ],
      "type": "VEC3"
    },
    {
      "bufferView": 17,
      "componentType": 5126,
      "count": 22770,
      "type": "VEC3"
    },
    {
      "bufferView": 18,
      "componentType": 5126,
      "count": 22770,
      "type": "VEC4"
    },
    {
      "bufferView": 19,
      "componentType": 5126,
      "count": 22770,
      "type": "VEC2"
    }
  ],
  "asset": {
    "generator": "Adobe Substance 3D Painter 8.1.3",
    "version": "2.0"
  },
  "bufferViews": [
    {
      "buffer": 0,
      "byteLength": 634368,
      "target": 34963
    },
    {
      "buffer": 0,
      "byteLength": 348936,
      "byteOffset": 634368,
      "target": 34962
    },
    {
      "buffer": 0,
      "byteLength": 348936,
      "byteOffset": 983304,
      "target": 34962
    },
    {
      "buffer": 0,
      "byteLength": 465248,
      "byteOffset": 1332240,
      "target": 34962
    },
    {
      "buffer": 0,
      "byteLength": 232624,
      "byteOffset": 1797488,
      "target": 34962
    },
    {
      "buffer": 0,
      "byteLength": 23040,
      "byteOffset": 2030112,
      "target": 34963
    },
    {
      "buffer": 0,
      "byteLength": 12864,
      "byteOffset": 2053152,
      "target": 34962
    },
    {
      "buffer": 0,
      "byteLength": 12864,
      "byteOffset": 2066016,
      "target": 34962
    },
    {
      "buffer": 0,
      "byteLength": 17152,
      "byteOffset": 2078880,
      "target": 34962
    },
    {
      "buffer": 0,
      "byteLength": 8576,
      "byteOffset": 2096032,
      "target": 34962
    },
    {
      "buffer": 0,
      "byteLength": 54624,
      "byteOffset": 2104608,
      "target": 34963
    },
    {
      "buffer": 0,
      "byteLength": 29460,
      "byteOffset": 2159232,
      "target": 34962
    },
    {
      "buffer": 0,
      "byteLength": 29460,
      "byteOffset": 2188692,
      "target": 34962
    },
    {
      "buffer": 0,
      "byteLength": 39280,
      "byteOffset": 2218152,
      "target": 34962
    },
    {
      "buffer": 0,
      "byteLength": 19640,
      "byteOffset": 2257432,
      "target": 34962
    },
    {
      "buffer": 0,
      "byteLength": 533904,
      "byteOffset": 2277072,
      "target": 34963
    },
    {
      "buffer": 0,
      "byteLength": 273240,
      "byteOffset": 2810976,
      "target": 34962
    },
    {
      "buffer": 0,
      "byteLength": 273240,
      "byteOffset": 3084216,
      "target": 34962
    },
    {
      "buffer": 0,
      "byteLength": 364320,
      "byteOffset": 3357456,
      "target": 34962
    },
    {
      "buffer": 0,
      "byteLength": 182160,
      "byteOffset": 3721776,
      "target": 34962
    }
  ],
  "buffers": [
    {
      "byteLength": 3903936,
      "uri": "tree.bin"
    }
  ],
  "images": [
    {
      "uri": "buddha_baseColor.png"
    },
    {
      "uri": "buddha_occlusionRoughnessMetallic.png"
    },
    {
      "uri": "buddha_normal.png"
    },
    {
      "uri": "leaves_baseColor.png"
    },
    {
      "uri": "leaves_occlusionRoughnessMetallic.png"
    },
    {
      "uri": "leaves_normal.png"
    },
    {
      "uri": "pebbles_baseColor.png"
    },
    {
      "uri": "pebbles_occlusionRoughnessMetallic.png"
    },
    {
      "uri": "pebbles_normal.png"
    },
    {
      "uri": "roots_baseColor.png"
    },
    {
      "uri": "roots_occlusionRoughnessMetallic.png"
    },
    {
      "uri": "roots_normal.png"
    }
  ],
  "materials": [
    {
      "alphaMode": "OPAQUE",
      "name": "buddha",
      "normalTexture": {
        "index": 2
      },
      "occlusionTexture": {
        "index": 1
      },
      "pbrMetallicRoughness": {
        "baseColorTexture": {
          "index": 0
        },
        "metallicRoughnessTexture": {
          "index": 1
        }
      }
    },
    {
      "alphaMode": "OPAQUE",
      "name": "leaves",
      "normalTexture": {
        "index": 5
      },
      "occlusionTexture": {
        "index": 4
      },
      "pbrMetallicRoughness": {
        "baseColorTexture": {
          "index": 3
        },
        "metallicRoughnessTexture": {
          "index": 4
        }
      }
    },
    {
      "alphaMode": "OPAQUE",
      "name": "pebbles",
      "normalTexture": {
        "index": 8
      },
      "occlusionTexture": {
        "index": 7
      },
      "pbrMetallicRoughness": {
        "baseColorTexture": {
          "index": 6
        },
        "metallicRoughnessTexture": {
          "index": 7
        }
      }
    },
    {
      "alphaMode": "OPAQUE",
      "name": "roots",
      "normalTexture": {
        "index": 11
      },
      "occlusionTexture": {
        "index": 10
      },
      "pbrMetallicRoughness": {
        "baseColorTexture": {
          "index": 9
        },
        "metallicRoughnessTexture": {
          "index": 10
        }
      }
    }
  ],
  "meshes": [
    {
      "name": "roots",
      "primitives": [
        {
          "attributes": {
            "NORMAL": 2,
            "POSITION": 1,
            "TANGENT": 3,
            "TEXCOORD_0": 4
          },
          "indices": 0,
          "material": 3,
          "mode": 4
        }
      ]
    },
    {
      "name": "pebbles",
      "primitives": [
        {
          "attributes": {
            "NORMAL": 7,
            "POSITION": 6,
            "TANGENT": 8,
            "TEXCOORD_0": 9
          },
          "indices": 5,
          "material": 2,
          "mode": 4
        }
      ]
    },
    {
      "name": "polySurface2 leaves",
      "primitives": [
        {
          "attributes": {
            "NORMAL": 12,
            "POSITION": 11,
            "TANGENT": 13,
            "TEXCOORD_0": 14
          },
          "indices": 10,
          "material": 1,
          "mode": 4
        }
      ]
    },
    {
      "name": "buddha1",
      "primitives": [
        {
          "attributes": {
            "NORMAL": 17,
            "POSITION": 16,
            "TANGENT": 18,
            "TEXCOORD_0": 19
          },
          "indices": 15,
          "material": 0,
          "mode": 4
        }
      ]
    }
  ],
  "nodes": [
    {
      "children": [
        1,
        3,
        5,
        7
      ],
      "name": "low%20poly.obj"
    },
    {
      "children": [
        2
      ],
      "name": "roots"
    },
    {
      "mesh": 0,
      "name": "roots"
    },
    {
      "children": [
        4
      ],
      "name": "pebbles"
    },
    {
      "mesh": 1,
      "name": "pebbles"
    },
    {
      "children": [
        6
      ],
      "name": "polySurface2 leaves"
    },
    {
      "mesh": 2,
      "name": "polySurface2 leaves"
    },
    {
      "children": [
        8
      ],
      "name": "buddha1"
    },
    {
      "mesh": 3,
      "name": "buddha1"
    }
  ],
  "samplers": [
    {
      "magFilter": 9729,
      "minFilter": 9985,
      "wrapS": 10497,
      "wrapT": 10497
    }
  ],
  "scene": 0,
  "scenes": [
    {
      "name": "Scene",
      "nodes": [
        0
      ]
    }
  ],
  "textures": [
    {
      "sampler": 0,
      "source": 0
    },
    {
      "sampler": 0,
      "source": 1
    },
    {
      "sampler": 0,
      "source": 2
    },
    {
      "sampler": 0,
      "source": 3
    },
    {
      "sampler": 0,
      "source": 4
    },
    {
      "sampler": 0,
      "source": 5
    },
    {
      "sampler": 0,
      "source": 6
    },
    {
      "sampler": 0,
      "source": 7
    },
    {
      "sampler": 0,
      "source": 8
    },
    {
      "sampler": 0,
      "source": 9
    },
    {
      "sampler": 0,
      "source": 10
    },
    {
      "sampler": 0,
      "source": 11
    }
  ]
}